<svg width="32" height="32" xmlns="http://www.w3.org/2000/svg">

 <g>
  <title>background</title>
  <rect fill="none" id="canvas_background" height="402" width="582" y="-1" x="-1"/>
 </g>
 <g>
  <title>Layer 1</title>
  <path id="svg_1" fill-rule="evenodd" fill="#666d89" d="m16,7c-5.963,0 -11,3.206 -11,7c0,0.276 0.224,0.5 0.5,0.5s0.5,-0.224 0.5,-0.5c0,-3.196 4.673,-6 10,-6c0.275,0 0.5,-0.224 0.5,-0.5s-0.224,-0.5 -0.5,-0.5z" clip-rule="evenodd"/>
  <path id="svg_2" fill-rule="evenodd" fill="#666d89" d="m15.936809,2c-8.837,0 -16,5.373 -16,12c0,4.127 2.779,7.766 7.008,9.926c0,0.027 -0.008,0.045 -0.008,0.074c0,1.793 -1.339,3.723 -1.928,4.736c0.001,0 0.002,0 0.002,0c-0.047,0.11 -0.074,0.231 -0.074,0.358c0,0.5 0.405,0.906 0.906,0.906c0.094,0 0.259,-0.025 0.255,-0.014c3.125,-0.512 6.069,-3.383 6.753,-4.215c0.999,0.147 2.029,0.229 3.086,0.229c8.835,0 16,-5.373 16,-12c0,-6.627 -7.164,-12 -16,-12zm0,22c-0.917,0 -1.858,-0.07 -2.796,-0.207c-0.097,-0.016 -0.194,-0.021 -0.29,-0.021c-0.594,0 -1.163,0.264 -1.546,0.73c-0.428,0.521 -1.646,1.684 -3.085,2.539c0.39,-0.895 0.695,-1.898 0.716,-2.932c0.006,-0.064 0.009,-0.129 0.009,-0.184c0,-0.752 -0.421,-1.439 -1.09,-1.781c-3.706,-1.892 -5.918,-4.937 -5.918,-8.144c0,-5.514 6.28,-10 14,-10c7.718,0 14,4.486 14,10c0,5.514 -6.281,10 -14,10z" clip-rule="evenodd"/>
 </g>
</svg>