<svg width="32" height="32" xmlns="http://www.w3.org/2000/svg">

 <g>
  <title>background</title>
  <rect fill="none" id="canvas_background" height="402" width="582" y="-1" x="-1"/>
 </g>
 <g>
  <title>Layer 1</title>
  <path id="svg_1" fill="#666d89" d="m16,0c-6.076,0 -11,4.924 -11,11c0,4.031 3.688,8.303 5.031,12.055c2.003,5.595 1.781,8.945 5.969,8.945c4.25,0 3.965,-3.334 5.969,-8.922c1.347,-3.76 5.031,-8.078 5.031,-12.078c0,-6.076 -4.926,-11 -11,-11zm2.592,27.176l-4.958,0.619c-0.177,-0.512 -0.367,-1.111 -0.598,-1.893c-0.003,-0.01 -0.007,-0.021 -0.009,-0.031l6.188,-0.773c-0.088,0.295 -0.182,0.605 -0.264,0.883c-0.131,0.449 -0.248,0.839 -0.359,1.195zm-5.856,-2.268c-0.182,-0.602 -0.387,-1.236 -0.615,-1.908l7.766,0c-0.123,0.359 -0.246,0.719 -0.352,1.059l-6.799,0.849zm3.264,5.092c-1.013,0 -1.479,-0.117 -1.997,-1.25l4.238,-0.531c-0.614,1.654 -1.061,1.781 -2.241,1.781zm4.672,-9l-9.333,0c-0.498,-1.08 -1.096,-2.16 -1.686,-3.217c-1.305,-2.335 -2.653,-4.75 -2.653,-6.783c0,-4.963 4.037,-9 9,-9c4.963,0 9,4.037 9,9c0,2.018 -1.35,4.446 -2.656,6.795c-0.584,1.053 -1.178,2.131 -1.672,3.205z"/>
  <path id="svg_2" fill="#666d89" d="m16,5c-3.309,0 -6,2.691 -6,6c0,0.276 0.224,0.5 0.5,0.5s0.5,-0.224 0.5,-0.5c0,-2.757 2.243,-5 5,-5c0.276,0 0.5,-0.224 0.5,-0.5s-0.225,-0.5 -0.5,-0.5z"/>
 </g>
</svg>