<svg width="32" height="32" xmlns="http://www.w3.org/2000/svg">

 <g>
  <title>background</title>
  <rect fill="none" id="canvas_background" height="402" width="582" y="-1" x="-1"/>
 </g>
 <g>
  <title>Layer 1</title>
  <path id="svg_1" fill-rule="evenodd" fill="#666d89" d="m29.193,5.265c-3.629,-3.596 -9.432,-3.671 -13.191,-0.288c-3.76,-3.383 -9.561,-3.308 -13.192,0.288c-3.741,3.704 -3.741,9.709 0,13.415c1.069,1.059 11.053,10.941 11.053,10.941c1.183,1.172 3.096,1.172 4.278,0c0,0 10.932,-10.822 11.053,-10.941c3.742,-3.706 3.742,-9.711 -0.001,-13.415zm-1.425,12.003l-11.053,10.941c-0.393,0.391 -1.034,0.391 -1.425,0l-11.053,-10.941c-2.95,-2.92 -2.95,-7.671 0,-10.591c2.844,-2.815 7.416,-2.914 10.409,-0.222l1.356,1.22l1.355,-1.22c2.994,-2.692 7.566,-2.594 10.41,0.222c2.95,2.919 2.95,7.67 0.001,10.591z" clip-rule="evenodd"/>
  <path id="svg_2" fill-rule="evenodd" fill="#666d89" d="m9.253,7.501c-0.002,0 -0.002,0.001 -0.004,0.001c-2.345,0.002 -4.246,1.903 -4.246,4.249l0,0c0,0.276 0.224,0.5 0.5,0.5s0.5,-0.224 0.5,-0.5l0,-0.001c0,-1.794 1.455,-3.249 3.249,-3.249l0.001,0c0.276,0 0.5,-0.224 0.5,-0.5s-0.223,-0.5 -0.5,-0.5z" clip-rule="evenodd"/>
 </g>
</svg>