<svg width="32" height="32" xmlns="http://www.w3.org/2000/svg">

 <g>
  <title>background</title>
  <rect fill="none" id="canvas_background" height="402" width="582" y="-1" x="-1"/>
 </g>
 <g>
  <title>Layer 1</title>
  <polyline id="svg_2" stroke-width="2" stroke-miterlimit="10" stroke-linejoin="round" stroke-linecap="round" stroke="#FFFFFF" points="   649,137.999 675,137.999 675,155.999 661,155.999  " fill="none"/>
  <polyline id="svg_3" stroke-width="2" stroke-miterlimit="10" stroke-linejoin="round" stroke-linecap="round" stroke="#FFFFFF" points="   653,155.999 649,155.999 649,141.999  " fill="none"/>
  <polyline id="svg_4" stroke-width="2" stroke-miterlimit="10" stroke-linejoin="round" stroke-linecap="round" stroke="#FFFFFF" points="   661,156 653,162 653,156  " fill="none"/>
  <path fill="#666d89" id="svg_5" d="m28.172,3.828c-0.964,-0.964 -2.186,-1.575 -3.533,-1.767c-1.961,-0.278 -3.895,0.367 -5.294,1.767c-0.391,0.391 -0.391,1.024 0,1.415c0.021,0.021 0.048,0.028 0.07,0.046c0.018,0.021 0.025,0.048 0.046,0.069l2.884,2.884l-14.896,14.896l-2.293,-2.293l12.637,-12.637c0.391,-0.391 0.391,-1.023 0,-1.414s-1.023,-0.391 -1.414,0l-13.342,13.342c-0.001,0.001 -0.002,0.001 -0.003,0.002l-0.742,0.742c-0.094,0.094 -0.167,0.206 -0.217,0.327c-0.049,0.122 -0.075,0.251 -0.075,0.38l0,7.413c0,0.553 0.448,1 1,1l7.414,0c0.265,0 0.52,-0.105 0.707,-0.293l17.051,-17.051c2.433,-2.434 2.433,-6.394 0,-8.828zm-3.814,0.214c0.914,0.13 1.744,0.545 2.399,1.2c1.409,1.41 1.606,3.567 0.614,5.199l-2.906,-2.907l0,0l0,0l-2.916,-2.916c0.831,-0.509 1.814,-0.717 2.809,-0.576zm-20.358,23.958l0,-5.482l2.74,2.74c0.001,0.001 0.001,0.002 0.001,0.002s0.002,0.001 0.002,0.001l2.739,2.739l-5.482,0zm4.863,-3.448l14.895,-14.896l2.293,2.293l-14.896,14.896l-2.292,-2.293z"/>
 </g>
</svg>