<svg width="32" height="32" xmlns="http://www.w3.org/2000/svg">

 <g>
  <title>background</title>
  <rect fill="none" id="canvas_background" height="402" width="582" y="-1" x="-1"/>
 </g>
 <g>
  <title>Layer 1</title>
  <path id="svg_1" fill="#666d89" d="m24,0l-16,0c-1.658,0 -3,1.343 -3,3l0,26c0,1.658 1.343,3 3,3l16,0c1.656,0 3,-1.344 3,-3l0,-26c0,-1.658 -1.344,-3 -3,-3zm1,29c0,0.551 -0.449,1 -1,1l-16,0c-0.552,0 -1,-0.447 -1,-1l0,-2.004l18,0l0,2.004zm0,-3.004l-18,0l0,-19.996l18,0l0,19.996zm0,-20.996l-18,0l0,-2c0,-0.552 0.448,-1 1,-1l16,0c0.551,0 1,0.448 1,1l0,2z"/>
  <path id="svg_2" fill="#666d89" d="m18,3.5c0,0.276 -0.225,0.5 -0.5,0.5l-3,0c-0.277,0 -0.5,-0.224 -0.5,-0.5l0,0c0,-0.277 0.223,-0.5 0.5,-0.5l3,0c0.275,0 0.5,0.223 0.5,0.5l0,0z"/>
  <path id="svg_3" fill="#666d89" d="m17,28.496c0,0.275 -0.225,0.5 -0.5,0.5l-1,0c-0.276,0 -0.5,-0.225 -0.5,-0.5l0,0c0,-0.277 0.224,-0.5 0.5,-0.5l1,0c0.275,0 0.5,0.223 0.5,0.5l0,0z"/>
 </g>
</svg>