<svg width="32" height="32" xmlns="http://www.w3.org/2000/svg">

 <g>
  <title>background</title>
  <rect fill="none" id="canvas_background" height="402" width="582" y="-1" x="-1"/>
 </g>
 <g>
  <title>Layer 1</title>
  <path id="star" fill="#666d89" d="m31.881,12.557c-0.277,-0.799 -0.988,-1.384 -1.844,-1.511l-8.326,-1.238l-3.619,-7.514c-0.381,-0.789 -1.196,-1.294 -2.092,-1.294c-0.896,0 -1.711,0.505 -2.092,1.294l-3.619,7.514l-8.327,1.238c-0.855,0.127 -1.566,0.712 -1.842,1.511c-0.275,0.801 -0.067,1.683 0.537,2.285l6.102,6.092l-1.415,8.451c-0.144,0.851 0.225,1.705 0.948,2.203c0.397,0.273 0.864,0.412 1.331,0.412c0.384,0 0.769,-0.094 1.118,-0.281l7.259,-3.908l7.26,3.908c0.349,0.187 0.734,0.281 1.117,0.281c0.467,0 0.934,-0.139 1.332,-0.412c0.723,-0.498 1.09,-1.352 0.947,-2.203l-1.416,-8.451l6.104,-6.092c0.603,-0.603 0.81,-1.485 0.537,-2.285zm-8.293,6.806c-0.512,0.51 -0.744,1.229 -0.627,1.934l1.416,8.451l-7.26,-3.906c-0.348,-0.188 -0.732,-0.281 -1.118,-0.281c-0.384,0 -0.769,0.094 -1.117,0.281l-7.26,3.906l1.416,-8.451c0.118,-0.705 -0.114,-1.424 -0.626,-1.934l-6.102,-6.092l8.326,-1.24c0.761,-0.113 1.416,-0.589 1.743,-1.268l3.621,-7.512l3.62,7.513c0.328,0.679 0.982,1.154 1.742,1.268l8.328,1.24l-6.102,6.091z"/>
 </g>
</svg>