<svg width="32" height="32" xmlns="http://www.w3.org/2000/svg">
 <metadata id="metadata8">image/svg+xml</metadata>

 <g>
  <title>background</title>
  <rect fill="none" id="canvas_background" height="402" width="582" y="-1" x="-1"/>
 </g>
 <g>
  <title>Layer 1</title>
  <path stroke="#bbbda5" style="vector-effect: non-scaling-stroke;" fill="#bbbda5" d="m31.38305,28.00703l-4.61243,-4.46036c-0.44017,-0.42647 -1.03955,-0.62617 -1.62019,-0.59895l-2.21964,-2.15076c3.77886,-4.84145 3.39495,-11.76569 -1.15664,-16.18062c-4.97756,-4.8233 -13.05508,-4.8233 -18.0327,0.00908c-4.98704,4.83237 -4.98704,12.65046 -0.00936,17.47376c4.55624,4.41499 11.70195,4.7825 16.6983,1.12079l2.21957,2.15082c-0.0281,0.56259 0.17794,1.14338 0.61811,1.56996l4.60306,4.46031c0.82415,0.79859 2.16803,0.79859 2.99218,0l0.51044,-0.49462c0.83345,-0.79859 0.83345,-2.09174 0.0093,-2.89941zm-12.36688,-8.58039c-3.45579,3.34866 -9.07025,3.35773 -12.52604,0.00908c-3.45579,-3.34865 -3.45579,-8.77998 0.00937,-12.13776c3.45579,-3.34865 9.0703,-3.35773 12.52609,-0.00908c3.45579,3.34866 3.44171,8.78004 -0.00942,12.13776z" id="path108"/>
  <path fill="#bbbda5" d="m16.225313,12.071435l-2.088458,0l0,-2.023712c0,-0.730503 -0.608743,-1.320433 -1.353253,-1.320433l-0.014017,0c-0.74457,0 -1.353253,0.589871 -1.353253,1.320433l0,2.023712l-2.088458,0c-0.753875,0 -1.362618,0.589871 -1.362618,1.311358l0,0.009075c0,0.721487 0.608743,1.311299 1.362618,1.311299l2.088458,0l0,2.023712c0,0.730562 0.608743,1.320433 1.353253,1.320433l0.009365,0c0.744509,0 1.353253,-0.589812 1.353253,-1.320433l0,-2.023712l2.088458,0c0.753875,0 1.362679,-0.589871 1.362679,-1.311299l0,-0.009075c0.009304,-0.721487 -0.599378,-1.311358 -1.358027,-1.311358z" id="path110"/>
 </g>
</svg>